<svg width="1044" height="779" viewBox="0 0 1044 779" fill="none" xmlns="http://www.w3.org/2000/svg">
<path fill-rule="evenodd" clip-rule="evenodd" d="M234.756 167.077C236.697 167.986 240.026 169.635 241.921 170.483C243.878 171.361 245.712 172.332 247.638 173.21C249.534 174.073 249.95 174.304 251.845 175.213C253.247 175.891 254.619 177.14 255.389 179.174C255.775 180.206 255.882 180.545 256.237 181.609C259.103 190.022 262.231 198.282 265.082 206.588C266.515 210.764 268.056 214.863 269.505 219.07C270.229 221.134 270.953 223.23 271.708 225.326C272.093 226.358 272.463 227.422 272.833 228.469C273.049 229.101 273.696 231.166 273.973 231.613C274.235 231.197 274.867 229.194 275.098 228.531L278.427 219.131C279.86 214.94 281.478 210.841 282.865 206.649C283.543 204.6 284.344 202.442 285.069 200.408L291.417 182.502C291.525 182.179 292.157 179.698 293.683 177.771C295.208 175.861 297.643 174.505 297.951 174.366C299.862 173.518 298.336 174.135 300.262 173.256C304.084 171.515 307.86 169.527 311.712 167.786C313.623 166.923 317.645 165.829 319.525 164.951C320.696 161.668 320.079 154.98 320.357 149.988C317.568 148.709 314.532 147.137 311.758 145.858C307.859 144.055 304.192 142.19 300.309 140.387C298.413 139.525 298.521 139.54 296.61 138.631C295.285 137.999 292.974 135.533 292.219 133.407L285.084 113.266C284.344 111.201 283.574 109.106 282.88 107.025C281.463 102.819 279.891 98.7196 278.458 94.5435L273.989 82C273.758 82.3852 263.68 111.063 262.909 113.205C262.154 115.254 261.492 117.396 260.69 119.446C259.92 121.449 259.196 123.637 258.487 125.687L255.775 133.345C254.804 136.751 252.23 138.23 250.119 139.186C244.495 141.774 240.195 143.839 234.571 146.428C233.538 154.41 234.093 160.821 234.771 167.077H234.756Z" fill="#EC4654" style="fill:#EC4654;fill:color(display-p3 0.9255 0.2745 0.3294);fill-opacity:1;"/>
<path fill-rule="evenodd" clip-rule="evenodd" d="M157.31 289.724C159.251 290.634 161.147 291.604 163.042 292.452C164.999 293.33 166.818 294.301 168.759 295.179C170.655 296.042 171.071 296.273 172.966 297.183C174.384 297.845 175.755 299.109 176.51 301.143C176.895 302.175 177.003 302.514 177.358 303.578C180.224 311.991 183.352 320.251 186.203 328.557C187.636 332.733 189.177 336.832 190.641 341.039C191.35 343.104 192.089 345.199 192.845 347.295C193.23 348.328 193.6 349.391 193.969 350.439C194.185 351.07 194.832 353.151 195.11 353.582C195.372 353.166 196.004 351.163 196.235 350.5L199.563 341.1C200.996 336.909 202.599 332.81 203.986 328.619C204.664 326.584 205.465 324.412 206.189 322.378L212.538 304.471C212.646 304.148 213.278 301.667 214.803 299.741C216.329 297.83 218.764 296.474 219.072 296.335C220.983 295.488 219.457 296.104 221.383 295.226C225.205 293.484 228.996 291.496 232.833 289.755C234.759 288.892 236.685 287.906 238.55 287.028C252.711 285.148 249.922 273.328 241.478 271.957C238.688 270.678 235.637 269.106 232.879 267.843C228.98 266.04 225.328 264.16 221.43 262.372C219.534 261.494 219.642 261.525 217.716 260.615C216.391 259.984 214.079 257.518 213.324 255.407L206.189 235.266C205.45 233.201 204.679 231.106 203.986 229.025C202.568 224.819 200.996 220.72 199.548 216.544L195.079 204C194.848 204.385 184.77 233.063 183.999 235.205C183.26 237.254 182.582 239.396 181.78 241.461C181.01 243.464 180.286 245.653 179.577 247.702L176.865 255.361C175.894 258.766 173.32 260.246 171.209 261.201C165.585 263.79 162.98 265.269 157.356 267.843C152.224 270.2 151.1 269.414 147.509 269.584C138.125 270.015 139.095 288.461 149.081 287.736C152.224 287.505 153.349 287.875 157.279 289.755L157.31 289.724Z" fill="#FFCD05" style="fill:#FFCD05;fill:color(display-p3 1.0000 0.8039 0.0196);fill-opacity:1;"/>
<path fill-rule="evenodd" clip-rule="evenodd" d="M985.513 255.544C983.302 256.36 981.142 257.23 978.983 257.991C976.754 258.778 974.682 259.649 972.47 260.437C970.311 261.211 969.837 261.418 967.678 262.233C966.063 262.828 964.501 263.961 963.64 265.785C963.202 266.711 963.079 267.015 962.675 267.969C959.41 275.515 955.846 282.923 952.599 290.372C950.966 294.118 949.211 297.794 947.543 301.567C946.735 303.419 945.893 305.299 945.033 307.178C944.594 308.104 944.172 309.058 943.751 309.998C943.505 310.564 942.768 312.43 942.452 312.817C942.154 312.444 941.434 310.647 941.171 310.053L937.379 301.622C935.746 297.863 933.921 294.187 932.341 290.428C931.568 288.603 930.655 286.655 929.83 284.83L922.598 268.771C922.475 268.48 921.755 266.255 920.017 264.528C918.279 262.814 915.506 261.598 915.155 261.473C912.978 260.713 914.716 261.266 912.521 260.478C908.168 258.917 903.85 257.134 899.478 255.572C897.284 254.798 895.09 253.913 892.966 253.126C876.833 251.44 880.01 240.839 889.63 239.609C892.808 238.462 896.284 237.052 899.426 235.919C903.867 234.302 908.028 232.616 912.469 231.013C914.628 230.225 914.505 230.252 916.699 229.437C918.209 228.87 920.842 226.659 921.703 224.766L929.83 206.702C930.673 204.85 931.551 202.97 932.341 201.104C933.956 197.331 935.746 193.655 937.396 189.91L942.487 178.66C942.75 179.005 954.231 204.726 955.109 206.647C955.952 208.485 956.724 210.406 957.637 212.258C958.515 214.054 959.34 216.017 960.147 217.855L963.237 224.724C964.343 227.778 967.274 229.105 969.679 229.962C976.087 232.284 979.053 233.611 985.461 235.919C991.306 238.033 992.588 237.329 996.678 237.481C1007.37 237.868 1006.26 254.411 994.888 253.761C991.306 253.554 990.025 253.886 985.549 255.572L985.513 255.544Z" fill="#FFCD05" style="fill:#FFCD05;fill:color(display-p3 1.0000 0.8039 0.0196);fill-opacity:1;"/>
<path fill-rule="evenodd" clip-rule="evenodd" d="M1043.69 527.552C1043.5 527.717 1041.95 528.348 1041.6 528.485L1026.58 535.136C1025.12 535.766 1023.71 536.425 1022.28 537.014C1020.82 537.618 1019.44 538.303 1017.98 538.907C1016.57 539.51 1016.25 539.674 1014.82 540.292C1013.77 540.758 1012.75 541.635 1012.16 543.034C1011.86 543.761 1011.79 543.994 1011.53 544.721C1009.38 550.549 1007.03 556.267 1004.9 562.012C1003.83 564.906 1002.66 567.744 1001.57 570.651C1001.03 572.091 1000.5 573.531 999.915 574.985C999.633 575.698 999.351 576.424 999.069 577.165C998.91 577.59 998.417 579.03 998.205 579.332C998.012 579.044 997.536 577.659 997.36 577.206L994.857 570.693C993.782 567.785 992.583 564.961 991.544 562.054C991.033 560.641 990.433 559.146 989.887 557.734L985.129 545.338C985.04 545.118 984.582 543.391 983.437 542.061C982.291 540.73 980.458 539.798 980.229 539.688C978.802 539.112 979.947 539.537 978.502 538.92C975.647 537.714 972.792 536.342 969.919 535.136C968.474 534.546 967.029 533.86 965.637 533.257L954.904 528.512C954.586 528.375 952.947 527.703 952.771 527.552C952.983 527.388 954.516 526.757 954.868 526.62C955.591 526.305 956.314 525.962 957.019 525.66L963.451 522.835C965.548 521.944 967.822 520.874 969.902 519.983C972.827 518.735 975.576 517.433 978.484 516.198C979.912 515.595 979.841 515.609 981.269 514.978C982.273 514.539 984.001 512.839 984.565 511.372L989.905 497.426C990.469 496 991.033 494.546 991.561 493.106C992.619 490.185 993.799 487.361 994.875 484.467L998.223 475.787C998.399 476.048 1005.96 495.917 1006.54 497.398C1007.11 498.811 1007.62 500.292 1008.2 501.732C1008.78 503.103 1009.33 504.625 1009.85 506.051L1011.9 511.358C1012.62 513.716 1014.56 514.745 1016.15 515.403C1020.36 517.199 1022.31 518.214 1026.53 519.997C1030.74 521.793 1035.16 523.864 1039.41 525.674L1043.71 527.594L1043.69 527.552Z" fill="#F06080" style="fill:#F06080;fill:color(display-p3 0.9412 0.3765 0.5020);fill-opacity:1;"/>
<path fill-rule="evenodd" clip-rule="evenodd" d="M62 409.975C62.1079 410.068 63.0016 410.468 63.1865 410.561L71.7544 414.66C72.5865 415.045 73.3878 415.461 74.2045 415.831C75.0366 416.201 75.8225 416.617 76.6546 417.002C77.456 417.356 77.6409 417.464 78.4576 417.85C79.0586 418.142 79.6441 418.682 79.9677 419.545C80.1373 419.992 80.1835 420.13 80.3376 420.577C81.5704 424.183 82.8956 427.712 84.113 431.256C84.7294 433.044 85.3766 434.785 86.0084 436.588C86.3166 437.466 86.6247 438.375 86.9484 439.269C87.1179 439.716 87.272 440.163 87.4261 440.61C87.5185 440.872 87.7959 441.765 87.9192 441.95C88.027 441.765 88.3044 440.918 88.3969 440.641L89.8146 436.619C90.4155 434.831 91.109 433.074 91.71 431.287C92.0028 430.409 92.3418 429.484 92.65 428.621L95.3621 420.962C95.4083 420.824 95.6703 419.76 96.3329 418.944C96.9801 418.127 98.028 417.541 98.1666 417.48C98.9834 417.125 98.3362 417.387 99.1529 417.002C100.786 416.262 102.404 415.415 104.053 414.675C104.87 414.305 105.702 413.889 106.503 413.504L112.621 410.576C112.806 410.499 113.73 410.068 113.838 409.991C113.715 409.883 112.852 409.498 112.652 409.405C112.236 409.205 111.82 409.004 111.419 408.804L107.751 407.063C106.565 406.523 105.255 405.845 104.084 405.306C102.42 404.536 100.848 403.734 99.1837 402.964C98.367 402.594 98.4132 402.594 97.5965 402.209C97.0263 401.931 96.0401 400.883 95.7165 399.974L92.6654 391.36C92.3572 390.482 92.0182 389.573 91.7254 388.694C91.1244 386.907 90.4464 385.15 89.83 383.363L87.9192 378C87.8113 378.154 83.512 390.42 83.173 391.329C82.8494 392.208 82.572 393.117 82.233 393.995C81.9094 394.858 81.5858 395.783 81.293 396.661L80.1373 399.928C79.7212 401.392 78.6271 402.024 77.7179 402.424C75.314 403.534 74.2045 404.166 71.8006 405.26C69.3967 406.369 66.8849 407.648 64.4501 408.758L62 409.944V409.975Z" fill="#FFCD05" style="fill:#FFCD05;fill:color(display-p3 1.0000 0.8039 0.0196);fill-opacity:1;"/>
<path fill-rule="evenodd" clip-rule="evenodd" d="M906.426 62.8124C906.302 62.8957 905.277 63.2567 905.065 63.34L895.244 67.0336C894.29 67.3807 893.371 67.7556 892.435 68.0888C891.481 68.4221 890.58 68.797 889.626 69.1441C888.707 69.4635 888.495 69.5607 887.559 69.9078C886.87 70.1717 886.199 70.6577 885.828 71.4353C885.634 71.8379 885.581 71.9629 885.404 72.3656C883.991 75.6148 882.472 78.7945 881.076 81.9882C880.369 83.5989 879.628 85.168 878.903 86.7926C878.55 87.5841 878.197 88.4033 877.826 89.2086C877.631 89.6113 877.455 90.014 877.278 90.4167C877.172 90.6528 876.854 91.4581 876.713 91.6247C876.589 91.4581 876.271 90.6944 876.165 90.4445L874.54 86.8204C873.851 85.2096 873.056 83.6267 872.367 82.016C872.032 81.2245 871.643 80.3914 871.29 79.6138L868.181 72.7127C868.128 72.5877 867.827 71.6297 867.068 70.8937C866.326 70.1578 865.124 69.6301 864.965 69.5746C864.029 69.2552 864.771 69.4913 863.835 69.1441C861.962 68.4776 860.108 67.7139 858.217 67.0474C857.281 66.7142 856.327 66.3393 855.409 65.9921L848.396 63.3539C848.184 63.2845 847.124 62.8957 847 62.8262C847.141 62.729 848.131 62.3819 848.36 62.2986C848.837 62.1181 849.314 61.9376 849.773 61.7571L853.978 60.188C855.338 59.702 856.84 59.0911 858.182 58.6051C860.09 57.9108 861.892 57.1887 863.8 56.4945C864.736 56.1612 864.683 56.1612 865.619 55.8141C866.273 55.5642 867.403 54.6199 867.774 53.8007L871.272 46.0387C871.625 45.2472 872.014 44.428 872.35 43.6365C873.038 42.0258 873.816 40.4429 874.522 38.8321L876.713 34C876.836 34.1389 881.765 45.1917 882.154 46.011C882.525 46.8024 882.843 47.6217 883.231 48.4131C883.602 49.1907 883.973 50.0238 884.309 50.8153L885.634 53.759C886.111 55.0781 887.365 55.6475 888.407 56.0085C891.163 57.0082 892.435 57.5775 895.191 58.5634C897.946 59.5632 900.826 60.7157 903.617 61.7154L906.426 62.7846V62.8124Z" fill="#FFCD05" style="fill:#FFCD05;fill:color(display-p3 1.0000 0.8039 0.0196);fill-opacity:1;"/>
<path fill-rule="evenodd" clip-rule="evenodd" d="M616.188 106.955C616.28 107.032 617.036 107.371 617.205 107.448L624.478 110.931C625.187 111.254 625.865 111.609 626.559 111.917C627.268 112.241 627.93 112.595 628.639 112.903C629.332 113.211 629.487 113.304 630.165 113.627C630.673 113.874 631.182 114.336 631.459 115.061C631.598 115.43 631.644 115.554 631.767 115.939C632.8 118.99 633.94 121.995 634.972 125C635.496 126.51 636.051 128.005 636.575 129.53C636.837 130.285 637.099 131.04 637.376 131.796C637.515 132.165 637.654 132.551 637.777 132.936C637.854 133.167 638.101 133.922 638.193 134.076C638.286 133.922 638.517 133.198 638.609 132.951L639.811 129.546C640.335 128.02 640.921 126.541 641.414 125.015C641.66 124.276 641.953 123.49 642.215 122.75L644.511 116.247C644.557 116.124 644.773 115.23 645.343 114.521C645.898 113.828 646.776 113.335 646.9 113.288C647.593 112.98 647.038 113.211 647.747 112.888C649.134 112.256 650.505 111.532 651.908 110.9C652.601 110.592 653.31 110.237 653.988 109.914L659.181 107.417C659.335 107.356 660.121 106.986 660.214 106.909C660.106 106.816 659.366 106.493 659.212 106.416C658.858 106.246 658.503 106.077 658.164 105.907L655.051 104.428C654.034 103.966 652.925 103.395 651.939 102.933C650.521 102.286 649.196 101.592 647.778 100.945C647.085 100.622 647.131 100.637 646.437 100.313C645.96 100.082 645.112 99.1885 644.835 98.418L642.246 91.0984C641.984 90.3433 641.691 89.5882 641.445 88.8332C640.921 87.3076 640.35 85.8283 639.842 84.3027L638.224 79.7568C638.131 79.8955 634.479 90.3125 634.202 91.083C633.925 91.8381 633.678 92.6086 633.401 93.3482C633.123 94.0725 632.861 94.8738 632.599 95.6135L631.613 98.3872C631.259 99.62 630.319 100.159 629.564 100.498C627.53 101.438 626.574 101.978 624.54 102.902C622.506 103.842 620.364 104.936 618.315 105.876L616.234 106.878L616.188 106.955Z" fill="#FFCD05" style="fill:#FFCD05;fill:color(display-p3 1.0000 0.8039 0.0196);fill-opacity:1;"/>
<path fill-rule="evenodd" clip-rule="evenodd" d="M872.637 516.339C872.531 516.408 871.666 516.711 871.472 516.78L863.142 519.898C862.33 520.187 861.553 520.505 860.759 520.78C859.947 521.07 859.189 521.387 858.377 521.663C857.583 521.939 857.406 522.022 856.63 522.311C856.047 522.532 855.465 522.946 855.147 523.594C854.988 523.925 854.935 524.036 854.794 524.38C853.612 527.112 852.306 529.801 851.123 532.491C850.523 533.843 849.888 535.181 849.288 536.546C848.988 537.222 848.688 537.898 848.37 538.574C848.211 538.905 848.052 539.249 847.911 539.594C847.823 539.801 847.541 540.477 847.435 540.615C847.329 540.477 847.064 539.829 846.958 539.608L845.582 536.56C844.982 535.194 844.311 533.87 843.746 532.505C843.464 531.843 843.128 531.139 842.828 530.477L840.199 524.656C840.146 524.546 839.899 523.746 839.246 523.111C838.61 522.491 837.605 522.049 837.463 522.008C836.669 521.732 837.305 521.939 836.493 521.649C834.904 521.084 833.334 520.436 831.728 519.87C830.933 519.594 830.122 519.277 829.345 518.987L823.398 516.753C823.221 516.698 822.321 516.367 822.215 516.298C822.339 516.215 823.186 515.925 823.362 515.856C823.768 515.705 824.174 515.553 824.562 515.401L828.127 514.077C829.292 513.663 830.563 513.153 831.692 512.739C833.316 512.16 834.834 511.539 836.457 510.96C837.252 510.67 837.199 510.684 837.993 510.394C838.54 510.187 839.511 509.387 839.828 508.698L842.793 502.146C843.093 501.47 843.429 500.794 843.711 500.118C844.311 498.753 844.964 497.429 845.546 496.063L847.399 491.994C847.505 492.118 851.688 501.442 852.006 502.132C852.323 502.808 852.606 503.498 852.923 504.16C853.241 504.808 853.541 505.525 853.841 506.187L854.971 508.67C855.377 509.774 856.453 510.256 857.318 510.56C859.647 511.401 860.742 511.884 863.071 512.711C865.401 513.553 867.854 514.532 870.201 515.374L872.584 516.27L872.637 516.339Z" fill="#FFCD05" style="fill:#FFCD05;fill:color(display-p3 1.0000 0.8039 0.0196);fill-opacity:1;"/>
<path fill-rule="evenodd" clip-rule="evenodd" d="M101.741 334.715C101.818 334.792 102.465 335.07 102.604 335.147L108.845 338.136C109.446 338.414 110.031 338.722 110.632 338.984C111.233 339.261 111.804 339.569 112.42 339.831C113.006 340.093 113.144 340.17 113.73 340.448C114.177 340.648 114.593 341.049 114.839 341.68C114.963 342.004 114.993 342.112 115.101 342.436C115.995 345.055 116.966 347.629 117.86 350.217C118.306 351.512 118.784 352.791 119.231 354.101C119.462 354.748 119.678 355.395 119.924 356.042C120.048 356.366 120.156 356.69 120.279 357.013C120.341 357.213 120.541 357.861 120.633 357.999C120.71 357.861 120.911 357.244 120.988 357.044L122.02 354.116C122.467 352.806 122.96 351.527 123.392 350.233C123.607 349.601 123.854 348.923 124.085 348.291L126.058 342.713C126.088 342.62 126.289 341.835 126.766 341.234C127.244 340.633 127.999 340.217 128.092 340.17C128.693 339.908 128.215 340.093 128.816 339.816C130.002 339.277 131.174 338.66 132.376 338.121C132.977 337.859 133.578 337.535 134.163 337.273L138.616 335.131C138.74 335.07 139.418 334.761 139.495 334.7C139.402 334.623 138.771 334.345 138.632 334.284C138.324 334.145 138.031 333.991 137.738 333.852L135.072 332.589C134.209 332.188 133.254 331.695 132.391 331.31C131.174 330.74 130.033 330.169 128.831 329.599C128.246 329.322 128.277 329.337 127.676 329.044C127.26 328.844 126.551 328.089 126.304 327.426L124.085 321.155C123.854 320.507 123.607 319.86 123.392 319.213C122.945 317.903 122.452 316.624 122.005 315.33L120.618 311.431C120.541 311.554 117.413 320.492 117.166 321.155C116.935 321.802 116.719 322.465 116.473 323.096C116.226 323.713 115.995 324.406 115.779 325.038L114.932 327.426C114.624 328.49 113.822 328.952 113.175 329.245C111.418 330.046 110.617 330.508 108.86 331.31C107.104 332.111 105.27 333.051 103.513 333.852L101.726 334.715H101.741Z" fill="#F6989A" style="fill:#F6989A;fill:color(display-p3 0.9647 0.5961 0.6039);fill-opacity:1;"/>
<path fill-rule="evenodd" clip-rule="evenodd" d="M1000.47 377.195C1000.38 377.265 999.628 377.517 999.466 377.587L992.176 380.303C991.474 380.556 990.789 380.836 990.087 381.074C989.385 381.326 988.719 381.606 987.999 381.844C987.315 382.082 987.153 382.152 986.469 382.404C985.947 382.586 985.461 382.95 985.173 383.524C985.029 383.818 984.993 383.916 984.867 384.21C983.823 386.591 982.689 388.93 981.645 391.282C981.123 392.458 980.565 393.621 980.043 394.811C979.773 395.399 979.521 395.987 979.233 396.575C979.089 396.869 978.963 397.164 978.819 397.458C978.747 397.64 978.513 398.228 978.405 398.354C978.315 398.228 978.081 397.668 977.991 397.486L976.785 394.825C976.263 393.635 975.687 392.472 975.183 391.296C974.931 390.722 974.643 390.106 974.373 389.532L972.069 384.462C972.033 384.378 971.799 383.664 971.241 383.118C970.683 382.572 969.801 382.194 969.693 382.152C968.991 381.914 969.549 382.082 968.847 381.83C967.461 381.34 966.093 380.78 964.689 380.289C963.987 380.051 963.285 379.757 962.601 379.519L957.399 377.573C957.255 377.517 956.463 377.237 956.373 377.181C956.481 377.111 957.219 376.859 957.381 376.803C957.741 376.677 958.083 376.537 958.425 376.411L961.539 375.262C962.547 374.898 963.663 374.45 964.671 374.1C966.093 373.582 967.425 373.064 968.829 372.546C969.513 372.294 969.477 372.308 970.179 372.041C970.665 371.859 971.493 371.173 971.781 370.571L974.373 364.872C974.643 364.284 974.931 363.695 975.183 363.107C975.705 361.917 976.281 360.755 976.803 359.578L978.423 356.036C978.513 356.148 982.167 364.27 982.455 364.872C982.725 365.46 982.977 366.062 983.265 366.636C983.553 367.196 983.823 367.826 984.075 368.401L985.065 370.571C985.425 371.537 986.361 371.957 987.117 372.224C989.169 372.952 990.105 373.372 992.158 374.1C994.21 374.828 996.352 375.682 998.404 376.411L1000.49 377.195H1000.47Z" fill="#F6989A" style="fill:#F6989A;fill:color(display-p3 0.9647 0.5961 0.6039);fill-opacity:1;"/>
<path fill-rule="evenodd" clip-rule="evenodd" d="M70.5672 231.269C70.6442 231.346 71.2915 231.623 71.4301 231.685L77.6711 234.674C78.2721 234.952 78.8576 235.26 79.4586 235.522C80.0596 235.799 80.6298 236.107 81.2461 236.369C81.8317 236.631 81.9704 236.708 82.556 237.001C82.9874 237.217 83.4189 237.602 83.6655 238.234C83.7887 238.558 83.8196 238.65 83.9274 238.989C84.8212 241.609 85.792 244.182 86.6858 246.771C87.1327 248.065 87.6104 249.344 88.0727 250.654C88.3038 251.286 88.5195 251.949 88.7507 252.596C88.874 252.919 88.9818 253.243 89.1051 253.567C89.1667 253.767 89.3825 254.414 89.4595 254.553C89.5366 254.414 89.7369 253.798 89.7985 253.597L90.831 250.67C91.2779 249.36 91.771 248.081 92.2025 246.786C92.4182 246.155 92.6648 245.476 92.8805 244.845L94.8529 239.266C94.8838 239.174 95.0841 238.388 95.5618 237.802C96.0395 237.201 96.7946 236.785 96.887 236.739C97.488 236.477 97.0103 236.662 97.6113 236.4C98.7978 235.861 99.9844 235.244 101.171 234.705C101.772 234.428 102.373 234.135 102.958 233.858L107.412 231.731C107.551 231.669 108.229 231.361 108.306 231.3C108.213 231.222 107.581 230.945 107.443 230.883C107.134 230.745 106.842 230.591 106.549 230.452L103.883 229.173C103.02 228.772 102.065 228.295 101.202 227.894C99.9844 227.339 98.8441 226.754 97.6267 226.199C97.0411 225.922 97.0719 225.937 96.471 225.644C96.0549 225.444 95.346 224.689 95.0995 224.011L92.8805 217.739C92.6493 217.092 92.4182 216.445 92.1871 215.797C91.7402 214.488 91.2625 213.208 90.8156 211.914L89.4287 208C89.3517 208.123 86.2235 217.061 85.9769 217.724C85.7458 218.371 85.53 219.033 85.2835 219.665C85.0369 220.282 84.8212 220.975 84.5901 221.607L83.7425 223.995C83.4497 225.059 82.633 225.521 81.9858 225.814C80.2291 226.615 79.4278 227.077 77.6711 227.879C75.9144 228.68 74.0806 229.62 72.3239 230.437L70.5364 231.3L70.5672 231.269Z" fill="#FFCD05" style="fill:#FFCD05;fill:color(display-p3 1.0000 0.8039 0.0196);fill-opacity:1;"/>
<path fill-rule="evenodd" clip-rule="evenodd" d="M352.242 118.011C352.334 118.088 353.089 118.427 353.259 118.504L360.548 122.002C361.257 122.326 361.935 122.68 362.628 122.988C363.337 123.312 364 123.666 364.708 123.99C365.402 124.298 365.556 124.391 366.234 124.714C366.743 124.961 367.251 125.423 367.528 126.163C367.667 126.533 367.713 126.656 367.837 127.041C368.884 130.108 370.025 133.112 371.057 136.133C371.581 137.658 372.136 139.153 372.66 140.663C372.922 141.418 373.184 142.173 373.461 142.944C373.6 143.314 373.739 143.699 373.877 144.084C373.954 144.315 374.185 145.07 374.293 145.225C374.386 145.07 374.617 144.346 374.709 144.1L375.927 140.679C376.451 139.153 377.036 137.658 377.545 136.133C377.791 135.393 378.084 134.607 378.346 133.868L380.657 127.349C380.704 127.241 380.919 126.332 381.49 125.623C382.044 124.93 382.923 124.437 383.046 124.391C383.739 124.082 383.185 124.298 383.894 123.99C385.28 123.358 386.667 122.634 388.054 122.002C388.748 121.678 389.456 121.324 390.134 121.016L395.343 118.519C395.497 118.458 396.283 118.088 396.375 118.011C396.268 117.918 395.528 117.595 395.358 117.518C395.004 117.348 394.65 117.179 394.311 117.009L391.198 115.53C390.181 115.068 389.071 114.498 388.07 114.035C386.652 113.388 385.327 112.695 383.909 112.047C383.216 111.724 383.262 111.739 382.568 111.4C382.091 111.169 381.243 110.275 380.966 109.505L378.377 102.17C378.099 101.415 377.822 100.66 377.576 99.9045C377.052 98.379 376.481 96.8842 375.958 95.3586L374.324 90.7974C374.247 90.9361 370.564 101.368 370.287 102.154C370.009 102.894 369.763 103.68 369.485 104.42C369.208 105.144 368.931 105.945 368.684 106.685L367.698 109.474C367.343 110.707 366.403 111.246 365.633 111.601C363.584 112.54 362.644 113.08 360.594 114.02C358.545 114.96 356.403 116.054 354.353 117.009L352.273 118.011H352.242Z" fill="#FFCD05" style="fill:#FFCD05;fill:color(display-p3 1.0000 0.8039 0.0196);fill-opacity:1;"/>
<path fill-rule="evenodd" clip-rule="evenodd" d="M910.322 295.31C910.215 295.379 909.336 295.682 909.139 295.751L900.663 298.876C899.839 299.165 899.051 299.481 898.244 299.757C897.42 300.046 896.649 300.362 895.825 300.652C895.019 300.927 894.839 301.009 894.051 301.299C893.46 301.519 892.868 301.932 892.546 302.593C892.384 302.923 892.331 303.033 892.187 303.377C890.969 306.117 889.643 308.801 888.442 311.499C887.833 312.862 887.188 314.197 886.578 315.546C886.274 316.221 885.969 316.895 885.647 317.584C885.485 317.914 885.324 318.258 885.163 318.602C885.073 318.809 884.804 319.483 884.679 319.621C884.571 319.483 884.303 318.836 884.195 318.616L882.779 315.56C882.17 314.197 881.489 312.862 880.898 311.499C880.611 310.838 880.271 310.136 879.966 309.475L877.278 303.653C877.224 303.556 876.973 302.744 876.31 302.111C875.665 301.491 874.644 301.051 874.501 301.009C873.694 300.734 874.339 300.927 873.515 300.652C871.902 300.087 870.289 299.44 868.677 298.876C867.87 298.587 867.046 298.27 866.257 297.995L860.201 295.765C860.021 295.71 859.108 295.379 859 295.31C859.125 295.228 859.986 294.939 860.183 294.87C860.595 294.719 861.007 294.567 861.401 294.416L865.021 293.094C866.204 292.681 867.494 292.172 868.659 291.759C870.307 291.181 871.848 290.561 873.497 289.983C874.303 289.694 874.25 289.708 875.056 289.405C875.612 289.198 876.597 288.4 876.92 287.712L879.93 281.159C880.253 280.485 880.575 279.81 880.862 279.136C881.471 277.773 882.134 276.437 882.744 275.075L884.643 271C884.733 271.124 889.015 280.443 889.338 281.145C889.661 281.806 889.947 282.508 890.27 283.169C890.592 283.816 890.915 284.532 891.202 285.193L892.349 287.684C892.761 288.785 893.854 289.267 894.75 289.584C897.133 290.424 898.226 290.905 900.61 291.745C902.993 292.585 905.484 293.562 907.867 294.416L910.286 295.31H910.322Z" fill="#FFCD05" style="fill:#FFCD05;fill:color(display-p3 1.0000 0.8039 0.0196);fill-opacity:1;"/>
<path fill-rule="evenodd" clip-rule="evenodd" d="M426 62.2861C426.17 62.4711 427.541 63.2415 427.834 63.4111L440.978 71.3933C442.257 72.1484 443.49 72.9497 444.723 73.6585C446.002 74.3828 447.204 75.1995 448.483 75.9392C449.716 76.648 449.993 76.8484 451.241 77.6034C452.166 78.1582 453.075 79.206 453.568 80.9011C453.83 81.7641 453.892 82.0414 454.123 82.9198C456.003 89.9312 458.052 96.804 459.932 103.723C460.872 107.206 461.889 110.611 462.829 114.109C463.292 115.835 463.769 117.576 464.278 119.318C464.524 120.181 464.771 121.059 465.017 121.937C465.156 122.461 465.588 124.187 465.772 124.557C465.942 124.202 466.358 122.538 466.497 121.999L468.685 114.171C469.625 110.673 470.673 107.267 471.582 103.769C472.029 102.074 472.553 100.256 473.03 98.5607L477.191 83.6594C477.268 83.3975 477.669 81.3172 478.686 79.7146C479.687 78.1119 481.29 76.987 481.49 76.8792C482.754 76.1857 481.737 76.6942 483.001 75.9546C485.497 74.5061 487.993 72.8572 490.505 71.4087C491.769 70.6844 493.032 69.8677 494.25 69.1281L503.65 63.4265C503.912 63.2569 505.345 62.4402 505.514 62.2707C505.314 62.0704 503.989 61.3307 503.68 61.1458C503.033 60.7606 502.417 60.3599 501.8 59.9901L496.176 56.5845C494.358 55.5213 492.354 54.2114 490.551 53.1482C488.009 51.6534 485.589 50.0816 483.047 48.6023C481.814 47.878 481.876 47.8935 480.612 47.1384C479.749 46.6144 478.224 44.5649 477.73 42.7928L473.046 26.0116C472.568 24.3011 472.06 22.5444 471.597 20.8185C470.673 17.3205 469.64 13.915 468.7 10.4324L465.772 0C465.618 0.308195 459.008 24.2087 458.499 25.9808C458.006 27.6913 457.575 29.4634 457.051 31.1739C456.542 32.8381 456.064 34.6719 455.602 36.3824L453.83 42.762C453.198 45.5974 451.503 46.8302 450.116 47.6161C446.433 49.7734 444.723 51.0062 441.04 53.1482C437.342 55.3055 433.489 57.8019 429.775 59.9747L426.015 62.2861H426Z" fill="#FFCD05" style="fill:#FFCD05;fill:color(display-p3 1.0000 0.8039 0.0196);fill-opacity:1;"/>
<path fill-rule="evenodd" clip-rule="evenodd" d="M303 217.524C303.108 217.648 303.955 218.11 304.14 218.233L312.277 223.18C313.063 223.642 313.833 224.151 314.604 224.582C315.405 225.029 316.145 225.537 316.93 226C317.701 226.447 317.87 226.57 318.641 227.032C319.211 227.387 319.766 228.034 320.089 229.066C320.243 229.606 320.29 229.775 320.428 230.33C321.6 234.675 322.863 238.928 324.019 243.212C324.604 245.37 325.236 247.496 325.822 249.654C326.115 250.717 326.407 251.811 326.716 252.874C326.87 253.414 327.024 253.953 327.178 254.492C327.27 254.816 327.532 255.895 327.64 256.11C327.748 255.895 328.01 254.862 328.102 254.523L329.443 249.684C330.029 247.512 330.676 245.416 331.246 243.243C331.523 242.195 331.847 241.07 332.14 240.023L334.713 230.792C334.759 230.623 335.006 229.344 335.638 228.357C336.254 227.371 337.24 226.662 337.364 226.601C338.15 226.169 337.533 226.477 338.304 226.03C339.86 225.121 341.401 224.104 342.957 223.211C343.743 222.764 344.514 222.255 345.284 221.793L351.094 218.264C351.263 218.172 352.142 217.648 352.25 217.555C352.142 217.432 351.309 216.97 351.125 216.862C350.724 216.631 350.339 216.369 349.953 216.153L346.471 214.057C345.346 213.395 344.098 212.593 342.988 211.931C341.401 211.006 339.922 210.035 338.35 209.111C337.579 208.664 337.626 208.664 336.84 208.201C336.3 207.878 335.36 206.614 335.052 205.505L332.155 195.119C331.862 194.055 331.539 192.961 331.261 191.898C330.676 189.725 330.044 187.629 329.458 185.472L327.64 179C327.548 179.2 323.464 193.978 323.141 195.088C322.832 196.151 322.57 197.245 322.247 198.308C321.939 199.341 321.63 200.466 321.353 201.529L320.243 205.474C319.843 207.231 318.81 207.986 317.947 208.479C315.667 209.804 314.619 210.575 312.323 211.915C310.042 213.256 307.654 214.797 305.358 216.153L303.031 217.571L303 217.524Z" fill="#FFCD05" style="fill:#FFCD05;fill:color(display-p3 1.0000 0.8039 0.0196);fill-opacity:1;"/>
<path fill-rule="evenodd" clip-rule="evenodd" d="M278.068 554.047C278.176 554.17 279.023 554.632 279.208 554.756L287.345 559.702C288.13 560.164 288.901 560.673 289.671 561.104C290.473 561.551 291.212 562.06 291.998 562.522C292.769 562.969 292.938 563.092 293.709 563.555C294.279 563.909 294.834 564.556 295.157 565.589C295.311 566.128 295.358 566.298 295.496 566.852C296.667 571.198 297.931 575.451 299.087 579.735C299.672 581.892 300.304 584.019 300.89 586.176C301.182 587.239 301.475 588.333 301.783 589.397C301.938 589.936 302.092 590.475 302.246 591.015C302.338 591.338 302.6 592.417 302.708 592.633C302.816 592.417 303.078 591.385 303.17 591.046L304.511 586.207C305.097 584.034 305.744 581.938 306.314 579.766C306.591 578.718 306.915 577.593 307.208 576.545L309.781 567.315C309.827 567.145 310.074 565.866 310.706 564.88C311.322 563.894 312.308 563.185 312.432 563.123C313.217 562.692 312.601 563 313.372 562.553C314.928 561.644 316.469 560.627 318.025 559.733C318.811 559.286 319.582 558.778 320.352 558.315L326.162 554.786C326.331 554.694 327.21 554.17 327.317 554.078C327.21 553.954 326.377 553.492 326.192 553.384C325.792 553.153 325.407 552.891 325.021 552.675L321.539 550.58C320.414 549.917 319.166 549.116 318.056 548.453C316.469 547.528 314.99 546.558 313.418 545.633C312.647 545.186 312.694 545.186 311.908 544.724C311.368 544.4 310.428 543.137 310.12 542.027L307.223 531.641C306.93 530.578 306.607 529.484 306.329 528.42C305.744 526.248 305.112 524.152 304.526 521.995L302.708 515.522C302.616 515.723 298.532 530.501 298.208 531.61C297.9 532.673 297.638 533.768 297.315 534.831C297.006 535.863 296.698 536.988 296.421 538.051L295.311 541.996C294.911 543.753 293.878 544.508 293.015 545.001C290.735 546.326 289.687 547.097 287.391 548.438C285.11 549.778 282.722 551.319 280.426 552.675L278.099 554.093L278.068 554.047Z" fill="#FFCD05" style="fill:#FFCD05;fill:color(display-p3 1.0000 0.8039 0.0196);fill-opacity:1;"/>
<path fill-rule="evenodd" clip-rule="evenodd" d="M91.8332 651.936C91.9411 652.059 92.7887 652.521 92.9736 652.629L101.11 657.576C101.896 658.053 102.666 658.547 103.437 658.993C104.223 659.44 104.978 659.949 105.764 660.396C106.534 660.843 106.704 660.966 107.474 661.428C108.044 661.783 108.599 662.43 108.923 663.462C109.077 664.002 109.123 664.171 109.262 664.726C110.417 669.071 111.696 673.325 112.852 677.608C113.438 679.766 114.054 681.892 114.655 684.05C114.948 685.113 115.241 686.192 115.549 687.27C115.703 687.81 115.857 688.349 115.996 688.888C116.088 689.212 116.35 690.275 116.458 690.506C116.566 690.291 116.812 689.258 116.905 688.919L118.261 684.065C118.831 681.908 119.494 679.781 120.064 677.639C120.341 676.591 120.665 675.466 120.958 674.419L123.531 665.188C123.577 665.019 123.839 663.74 124.456 662.753C125.072 661.767 126.058 661.058 126.182 660.997C126.967 660.55 126.336 660.873 127.122 660.427C128.663 659.533 130.204 658.5 131.775 657.607C132.546 657.16 133.332 656.651 134.087 656.189L139.912 652.645C140.081 652.552 140.959 652.044 141.052 651.936C140.944 651.813 140.112 651.35 139.927 651.227C139.542 650.996 139.141 650.734 138.756 650.518L135.289 648.407C134.148 647.744 132.916 646.943 131.791 646.28C130.203 645.356 128.724 644.385 127.137 643.46C126.366 643.014 126.413 643.014 125.627 642.551C125.087 642.212 124.147 640.964 123.839 639.87L120.942 629.484C120.649 628.421 120.326 627.326 120.048 626.263C119.478 624.106 118.831 621.979 118.246 619.837L116.427 613.365C116.335 613.566 112.236 628.359 111.928 629.453C111.619 630.501 111.357 631.61 111.034 632.674C110.726 633.706 110.433 634.831 110.14 635.894L109.031 639.855C108.645 641.596 107.582 642.366 106.734 642.859C104.454 644.2 103.406 644.955 101.11 646.28C98.8293 647.621 96.4407 649.162 94.1447 650.503L91.8179 651.936H91.8332Z" fill="#EC4654" style="fill:#EC4654;fill:color(display-p3 0.9255 0.2745 0.3294);fill-opacity:1;"/>
<path fill-rule="evenodd" clip-rule="evenodd" d="M1032.01 660.352C1031.88 660.45 1030.86 660.797 1030.64 660.88L1020.82 664.574C1019.87 664.921 1018.95 665.296 1018.01 665.615C1017.06 665.962 1016.15 666.337 1015.2 666.67C1014.28 666.99 1014.07 667.101 1013.13 667.434C1012.44 667.698 1011.77 668.17 1011.4 668.961C1011.21 669.364 1011.15 669.489 1010.98 669.906C1009.56 673.155 1008.04 676.335 1006.65 679.528C1005.94 681.139 1005.18 682.722 1004.47 684.333C1004.12 685.138 1003.77 685.943 1003.4 686.749C1003.2 687.151 1003.03 687.554 1002.85 687.971C1002.74 688.207 1002.42 689.012 1002.3 689.179C1002.18 689.012 1001.86 688.248 1001.75 687.985L1000.13 684.36C999.421 682.75 998.643 681.167 997.954 679.556C997.619 678.765 997.23 677.931 996.876 677.154L993.766 670.253C993.713 670.128 993.413 669.17 992.653 668.434C991.911 667.698 990.709 667.17 990.55 667.115C989.614 666.795 990.356 667.031 989.419 666.684C987.546 666.004 985.691 665.24 983.8 664.574C982.864 664.24 981.91 663.852 980.991 663.518L973.976 660.88C973.764 660.811 972.703 660.436 972.58 660.352C972.721 660.255 973.711 659.908 973.94 659.825C974.417 659.644 974.877 659.464 975.354 659.297L979.559 657.728C980.92 657.242 982.422 656.631 983.765 656.145C985.673 655.451 987.476 654.729 989.384 654.048C990.303 653.701 990.268 653.729 991.204 653.368C991.858 653.132 992.989 652.174 993.36 651.355L996.859 643.593C997.23 642.801 997.601 641.982 997.937 641.19C998.626 639.58 999.403 637.997 1000.11 636.386L1002.3 631.554C1002.41 631.707 1007.35 642.746 1007.74 643.579C1008.11 644.37 1008.43 645.189 1008.82 645.981C1009.19 646.759 1009.56 647.592 1009.9 648.383L1011.22 651.341C1011.7 652.646 1012.96 653.215 1014 653.576C1016.76 654.576 1018.03 655.145 1020.78 656.145C1023.54 657.145 1026.42 658.297 1029.2 659.311L1032.01 660.38V660.352Z" fill="#FFCD05" style="fill:#FFCD05;fill:color(display-p3 1.0000 0.8039 0.0196);fill-opacity:1;"/>
<path fill-rule="evenodd" clip-rule="evenodd" d="M556.981 118.574C557.089 118.667 557.921 119.021 558.106 119.098L566.242 122.797C567.044 123.151 567.799 123.521 568.569 123.845C569.355 124.184 570.11 124.569 570.896 124.908C571.666 125.231 571.836 125.324 572.606 125.678C573.177 125.94 573.731 126.418 574.04 127.204C574.194 127.605 574.24 127.728 574.394 128.144C575.55 131.395 576.829 134.585 577.984 137.79C578.57 139.408 579.202 140.98 579.787 142.614C580.08 143.415 580.373 144.216 580.681 145.033C580.835 145.434 580.989 145.834 581.128 146.25C581.22 146.497 581.482 147.298 581.606 147.468C581.714 147.298 581.96 146.528 582.053 146.281L583.393 142.644C583.979 141.026 584.626 139.439 585.196 137.821C585.474 137.035 585.797 136.203 586.09 135.402L588.663 128.483C588.71 128.36 588.956 127.404 589.588 126.649C590.204 125.909 591.191 125.386 591.314 125.324C592.084 125 591.468 125.231 592.254 124.892C593.795 124.214 595.336 123.459 596.892 122.781C597.663 122.442 598.449 122.072 599.219 121.718L605.029 119.068C605.198 118.991 606.076 118.621 606.184 118.528C606.061 118.436 605.244 118.097 605.044 118.004C604.643 117.835 604.258 117.634 603.888 117.465L600.406 115.893C599.281 115.4 598.048 114.799 596.908 114.306C595.32 113.613 593.841 112.888 592.269 112.195C591.499 111.856 591.53 111.871 590.759 111.517C590.22 111.27 589.28 110.33 588.972 109.498L586.075 101.716C585.766 100.915 585.458 100.114 585.165 99.3123C584.595 97.6943 583.948 96.1071 583.378 94.489L581.575 89.6504C581.467 89.8045 577.383 100.869 577.06 101.701C576.767 102.502 576.49 103.319 576.166 104.12C575.858 104.891 575.55 105.738 575.272 106.524L574.178 109.483C573.778 110.793 572.73 111.363 571.882 111.733C569.602 112.734 568.538 113.304 566.258 114.306C563.977 115.308 561.589 116.463 559.292 117.465L556.966 118.528L556.981 118.574Z" fill="#FFCD05" style="fill:#FFCD05;fill:color(display-p3 1.0000 0.8039 0.0196);fill-opacity:1;"/>
<path fill-rule="evenodd" clip-rule="evenodd" d="M0.0154248 586.574C0.123293 586.667 0.955388 587.021 1.14031 587.098L9.27664 590.797C10.0779 591.151 10.833 591.521 11.6035 591.845C12.3894 592.184 13.1445 592.569 13.9304 592.908C14.7009 593.231 14.8704 593.324 15.6409 593.678C16.211 593.94 16.7658 594.418 17.074 595.204C17.2281 595.605 17.2743 595.728 17.4284 596.144C18.5841 599.395 19.8631 602.585 21.0189 605.79C21.6044 607.408 22.2362 608.98 22.8218 610.614C23.1146 611.415 23.4074 612.216 23.7156 613.033C23.8697 613.434 24.0238 613.834 24.1625 614.25C24.2549 614.497 24.5169 615.298 24.6401 615.468C24.748 615.298 24.9946 614.528 25.087 614.281L26.4277 610.644C27.0133 609.026 27.6605 607.439 28.2306 605.821C28.508 605.035 28.8316 604.203 29.1244 603.402L31.6978 596.483C31.7441 596.36 31.9906 595.404 32.6224 594.649C33.2388 593.909 34.225 593.386 34.3483 593.324C35.1188 593 34.5024 593.231 35.2883 592.892C36.8293 592.214 38.3702 591.459 39.9266 590.781C40.6971 590.442 41.483 590.072 42.2535 589.718L48.063 587.068C48.2325 586.991 49.1108 586.621 49.2187 586.528C49.0954 586.436 48.2787 586.097 48.0784 586.004C47.6777 585.835 47.2925 585.634 46.9227 585.465L43.44 583.893C42.3151 583.4 41.0823 582.799 39.942 582.306C38.3548 581.613 36.8755 580.888 35.3037 580.195C34.5332 579.856 34.564 579.871 33.7935 579.517C33.2542 579.27 32.3142 578.33 32.006 577.498L29.109 569.716C28.8008 568.915 28.4926 568.114 28.1998 567.312C27.6296 565.694 26.9824 564.107 26.4123 562.489L24.6093 557.65C24.5015 557.804 20.4179 568.869 20.0943 569.701C19.8015 570.502 19.5241 571.319 19.2005 572.12C18.8923 572.891 18.5841 573.738 18.3068 574.524L17.2126 577.483C16.812 578.793 15.7641 579.363 14.9166 579.733C12.636 580.734 11.5727 581.304 9.29207 582.306C7.01143 583.308 4.62293 584.463 2.32688 585.465L0 586.528L0.0154248 586.574Z" fill="#FFCD05" style="fill:#FFCD05;fill:color(display-p3 1.0000 0.8039 0.0196);fill-opacity:1;"/>
<path fill-rule="evenodd" clip-rule="evenodd" d="M36.6195 336.472C40.888 336.472 44.3552 339.939 44.3552 344.207C44.3552 348.476 40.888 351.943 36.6195 351.943C32.351 351.943 28.8838 348.476 28.8838 344.207C28.8838 339.939 32.351 336.472 36.6195 336.472Z" fill="#FFCD05" style="fill:#FFCD05;fill:color(display-p3 1.0000 0.8039 0.0196);fill-opacity:1;"/>
<path fill-rule="evenodd" clip-rule="evenodd" d="M403.025 346.699C407.294 346.699 410.761 350.167 410.761 354.435C410.761 358.704 407.294 362.171 403.025 362.171C398.757 362.171 395.29 358.704 395.29 354.435C395.29 350.167 398.757 346.699 403.025 346.699Z" fill="#4D5488" style="fill:#4D5488;fill:color(display-p3 0.3020 0.3294 0.5333);fill-opacity:1;"/>
<path fill-rule="evenodd" clip-rule="evenodd" d="M382.653 399.124C386.937 399.124 390.389 402.591 390.389 406.86C390.389 411.128 386.922 414.595 382.653 414.595C378.385 414.595 374.918 411.128 374.918 406.86C374.918 402.591 378.385 399.124 382.653 399.124Z" fill="white" style="fill:white;fill-opacity:1;"/>
<path fill-rule="evenodd" clip-rule="evenodd" d="M463.354 426.399C467.638 426.399 471.09 429.866 471.09 434.135C471.09 438.403 467.623 441.87 463.354 441.87C459.086 441.87 455.618 438.403 455.618 434.135C455.618 429.866 459.086 426.399 463.354 426.399Z" fill="white" style="fill:white;fill-opacity:1;"/>
<path fill-rule="evenodd" clip-rule="evenodd" d="M951.871 454.178C946.884 454.178 942.867 457.204 942.867 460.931C942.867 464.657 946.902 467.684 951.871 467.684C956.839 467.684 960.875 464.657 960.875 460.931C960.875 457.204 956.839 454.178 951.871 454.178Z" fill="white" style="fill:white;fill-opacity:1;"/>
<path fill-rule="evenodd" clip-rule="evenodd" d="M483.803 540.046C488.087 540.046 491.539 543.513 491.539 547.782C491.539 552.05 488.071 555.533 483.803 555.533C479.534 555.533 476.067 552.065 476.067 547.782C476.067 543.498 479.534 540.046 483.803 540.046Z" fill="white" style="fill:white;fill-opacity:1;"/>
<path fill-rule="evenodd" clip-rule="evenodd" d="M928.461 555.021C923.475 555.021 919.457 558.448 919.457 562.667C919.457 566.885 923.492 570.328 928.461 570.328C933.429 570.328 937.465 566.901 937.465 562.667C937.465 558.433 933.429 555.021 928.461 555.021Z" fill="white" style="fill:white;fill-opacity:1;"/>
<path fill-rule="evenodd" clip-rule="evenodd" d="M285.5 287C281.347 287 278 289.913 278 293.5C278 297.087 281.362 300 285.5 300C289.638 300 293 297.087 293 293.5C293 289.913 289.638 287 285.5 287Z" fill="white" style="fill:white;fill-opacity:1;"/>
<path fill-rule="evenodd" clip-rule="evenodd" d="M285.5 264C281.362 264 278 267.137 278 271C278 274.863 281.362 278 285.5 278C289.638 278 293 274.863 293 271C293 267.137 289.638 264 285.5 264Z" fill="white" style="fill:white;fill-opacity:1;"/>
<path fill-rule="evenodd" clip-rule="evenodd" d="M285.5 242C281.362 242 278 245.137 278 249C278 252.863 281.362 256 285.5 256C289.638 256 293 252.863 293 249C293 245.137 289.638 242 285.5 242Z" fill="white" style="fill:white;fill-opacity:1;"/>
<path fill-rule="evenodd" clip-rule="evenodd" d="M320.436 17C324.72 17 328.172 20.4672 328.172 24.7357C328.172 29.0042 324.705 32.4714 320.436 32.4714C316.168 32.4714 312.701 29.0042 312.701 24.7357C312.701 20.4672 316.168 17 320.436 17Z" fill="#FFCD05" style="fill:#FFCD05;fill:color(display-p3 1.0000 0.8039 0.0196);fill-opacity:1;"/>
<path fill-rule="evenodd" clip-rule="evenodd" d="M866 129C859.908 129 855 133.93 855 140C855 146.07 859.93 151 866 151C872.07 151 877 146.07 877 140C877 133.93 872.07 129 866 129Z" fill="#FFCD05" style="fill:#FFCD05;fill:color(display-p3 1.0000 0.8039 0.0196);fill-opacity:1;"/>
<path fill-rule="evenodd" clip-rule="evenodd" d="M610.9 64.4395C615.184 64.4395 618.636 67.9066 618.636 72.1751C618.636 76.4436 615.168 79.9108 610.9 79.9108C606.631 79.9108 603.164 76.4436 603.164 72.1751C603.164 67.9066 606.631 64.4395 610.9 64.4395Z" fill="white" style="fill:white;fill-opacity:1;"/>
<path fill-rule="evenodd" clip-rule="evenodd" d="M53.9342 532.44C58.2181 532.44 61.6698 535.907 61.6698 540.175C61.6698 544.444 58.2027 547.911 53.9342 547.911C49.6657 547.911 46.1985 544.444 46.1985 540.175C46.1985 535.907 49.6657 532.44 53.9342 532.44Z" fill="white" style="fill:white;fill-opacity:1;"/>
<path fill-rule="evenodd" clip-rule="evenodd" d="M749.479 40C753.763 40 757.215 43.4672 757.215 47.7357C757.215 52.0042 753.748 55.4714 749.479 55.4714C745.211 55.4714 741.744 52.0042 741.744 47.7357C741.744 43.4672 745.211 40 749.479 40Z" fill="white" style="fill:white;fill-opacity:1;"/>
<path fill-rule="evenodd" clip-rule="evenodd" d="M192.514 508C196.798 508 200.25 511.467 200.25 515.736C200.25 520.004 196.782 523.471 192.514 523.471C188.245 523.471 184.778 520.004 184.778 515.736C184.778 511.467 188.245 508 192.514 508Z" fill="white" style="fill:white;fill-opacity:1;"/>
<path fill-rule="evenodd" clip-rule="evenodd" d="M736.119 67.1675C740.388 67.1675 743.855 70.6347 743.855 74.9032C743.855 79.1717 740.388 82.6389 736.119 82.6389C731.851 82.6389 728.384 79.1717 728.384 74.9032C728.384 70.6347 731.851 67.1675 736.119 67.1675Z" fill="white" style="fill:white;fill-opacity:1;"/>
<path fill-rule="evenodd" clip-rule="evenodd" d="M179.154 535.167C183.422 535.167 186.889 538.635 186.889 542.903C186.889 547.172 183.422 550.639 179.154 550.639C174.885 550.639 171.418 547.172 171.418 542.903C171.418 538.635 174.885 535.167 179.154 535.167Z" fill="white" style="fill:white;fill-opacity:1;"/>
<path fill-rule="evenodd" clip-rule="evenodd" d="M794.09 234.964C796.001 238.785 794.445 243.439 790.623 245.35C786.802 247.261 782.148 245.704 780.237 241.883C778.326 238.061 779.883 233.407 783.704 231.497C787.526 229.586 792.18 231.142 794.09 234.964Z" fill="white" style="fill:white;fill-opacity:1;"/>
<path fill-rule="evenodd" clip-rule="evenodd" d="M59.9344 288.217C61.8452 292.038 60.2889 296.692 56.4672 298.603C52.6456 300.513 47.9919 298.957 46.0811 295.135C44.1703 291.314 45.7267 286.66 49.5483 284.749C53.3699 282.839 58.0236 284.395 59.9344 288.217Z" fill="white" style="fill:white;fill-opacity:1;"/>
<path fill-rule="evenodd" clip-rule="evenodd" d="M763.826 235.164C765.721 238.986 764.18 243.64 760.359 245.55C756.537 247.461 751.884 245.905 749.973 242.083C748.062 238.262 749.618 233.608 753.44 231.697C757.262 229.786 761.915 231.343 763.826 235.164Z" fill="white" style="fill:white;fill-opacity:1;"/>
<path fill-rule="evenodd" clip-rule="evenodd" d="M29.6703 288.416C31.5657 292.238 30.0247 296.892 26.2031 298.803C22.3815 300.713 17.7278 299.157 15.8169 295.335C13.9061 291.514 15.4625 286.86 19.2841 284.949C23.1057 283.038 27.7595 284.595 29.6703 288.416Z" fill="white" style="fill:white;fill-opacity:1;"/>
<path fill-rule="evenodd" clip-rule="evenodd" d="M842.277 151.182C843.833 155.157 841.876 159.657 837.901 161.213C833.925 162.77 829.425 160.813 827.869 156.822C826.312 152.846 828.27 148.346 832.245 146.79C836.221 145.233 840.721 147.19 842.277 151.182Z" fill="#FFCD05" style="fill:#FFCD05;fill:color(display-p3 1.0000 0.8039 0.0196);fill-opacity:1;"/>
<path fill-rule="evenodd" clip-rule="evenodd" d="M196.311 146.774C197.868 150.75 195.911 155.249 191.935 156.806C187.959 158.362 183.46 156.405 181.903 152.414C180.347 148.438 182.304 143.938 186.28 142.382C190.255 140.826 194.755 142.783 196.311 146.774Z" fill="#FFCD05" style="fill:#FFCD05;fill:color(display-p3 1.0000 0.8039 0.0196);fill-opacity:1;"/>
<path fill-rule="evenodd" clip-rule="evenodd" d="M812.12 148.639C813.677 152.614 811.72 157.114 807.744 158.67C803.753 160.227 799.269 158.254 797.712 154.279C796.156 150.303 798.113 145.803 802.104 144.247C806.08 142.69 810.579 144.647 812.136 148.639H812.12Z" fill="white" style="fill:white;fill-opacity:1;"/>
<path fill-rule="evenodd" clip-rule="evenodd" d="M255.154 616.639C256.711 620.615 254.754 625.114 250.778 626.671C246.787 628.227 242.303 626.255 240.746 622.279C239.19 618.303 241.147 613.804 245.138 612.247C249.114 610.691 253.614 612.648 255.17 616.639H255.154Z" fill="white" style="fill:white;fill-opacity:1;"/>
<path fill-rule="evenodd" clip-rule="evenodd" d="M777.71 259.312C779.621 263.133 778.065 267.787 774.243 269.698C770.422 271.609 765.768 270.052 763.857 266.231C761.946 262.409 763.503 257.755 767.324 255.845C771.146 253.934 775.799 255.49 777.695 259.312H777.71Z" fill="white" style="fill:white;fill-opacity:1;"/>
<path fill-rule="evenodd" clip-rule="evenodd" d="M43.5546 312.564C45.4654 316.386 43.909 321.039 40.0874 322.95C36.2658 324.861 31.612 323.304 29.7012 319.483C27.7904 315.661 29.3468 311.008 33.1684 309.097C36.99 307.186 41.6437 308.742 43.5391 312.564H43.5546Z" fill="white" style="fill:white;fill-opacity:1;"/>
<path fill-rule="evenodd" clip-rule="evenodd" d="M848.41 238.894C850.32 242.715 848.764 247.369 844.942 249.28C841.121 251.191 836.467 249.634 834.556 245.813C832.661 241.991 834.202 237.337 838.023 235.427C841.845 233.516 846.499 235.072 848.41 238.894Z" fill="#FFCD05" style="fill:#FFCD05;fill:color(display-p3 1.0000 0.8039 0.0196);fill-opacity:1;"/>
<path fill-rule="evenodd" clip-rule="evenodd" d="M433.906 298.044C435.817 301.866 434.261 306.52 430.439 308.431C426.617 310.341 421.964 308.785 420.053 304.963C418.157 301.142 419.698 296.488 423.52 294.577C427.342 292.666 431.995 294.223 433.906 298.044Z" fill="#FFCD05" style="fill:#FFCD05;fill:color(display-p3 1.0000 0.8039 0.0196);fill-opacity:1;"/>
<path fill-rule="evenodd" clip-rule="evenodd" d="M116.67 52.2841C118.581 56.1057 117.025 60.7595 113.203 62.6703C109.381 64.5811 104.728 63.0247 102.817 59.2031C100.906 55.3815 102.463 50.7278 106.284 48.8169C110.106 46.9061 114.759 48.4625 116.67 52.2841Z" fill="#B31E49" style="fill:#B31E49;fill:color(display-p3 0.7020 0.1176 0.2863);fill-opacity:1;"/>
<path fill-rule="evenodd" clip-rule="evenodd" d="M260.67 373.722C262.581 377.543 261.025 382.197 257.203 384.108C253.381 386.019 248.728 384.462 246.817 380.641C244.906 376.819 246.463 372.165 250.284 370.255C254.106 368.344 258.759 369.9 260.67 373.722Z" fill="#B31E49" style="fill:#B31E49;fill:color(display-p3 0.7020 0.1176 0.2863);fill-opacity:1;"/>
<path fill-rule="evenodd" clip-rule="evenodd" d="M128.536 90.5615C130.447 94.3831 128.89 99.0368 125.069 100.948C121.247 102.858 116.593 101.302 114.698 97.4804C112.787 93.6588 114.343 89.0051 118.165 87.0943C121.987 85.1835 126.64 86.7399 128.551 90.5615H128.536Z" fill="#B31E49" style="fill:#B31E49;fill:color(display-p3 0.7020 0.1176 0.2863);fill-opacity:1;"/>
<path fill-rule="evenodd" clip-rule="evenodd" d="M272.536 411.999C274.447 415.821 272.89 420.475 269.069 422.385C265.247 424.296 260.593 422.74 258.698 418.918C256.787 415.097 258.343 410.443 262.165 408.532C265.987 406.621 270.64 408.178 272.551 411.999H272.536Z" fill="#B31E49" style="fill:#B31E49;fill:color(display-p3 0.7020 0.1176 0.2863);fill-opacity:1;"/>
<path fill-rule="evenodd" clip-rule="evenodd" d="M140.417 128.839C142.327 132.661 140.771 137.315 136.949 139.225C133.128 141.136 128.474 139.58 126.563 135.758C124.652 131.937 126.209 127.283 130.03 125.372C133.852 123.461 138.506 125.002 140.417 128.839Z" fill="#B31E49" style="fill:#B31E49;fill:color(display-p3 0.7020 0.1176 0.2863);fill-opacity:1;"/>
<path fill-rule="evenodd" clip-rule="evenodd" d="M284.417 450.277C286.327 454.099 284.771 458.752 280.949 460.663C277.128 462.574 272.474 461.018 270.563 457.196C268.652 453.375 270.209 448.721 274.03 446.81C277.852 444.899 282.506 446.44 284.417 450.277Z" fill="#B31E49" style="fill:#B31E49;fill:color(display-p3 0.7020 0.1176 0.2863);fill-opacity:1;"/>
<path fill-rule="evenodd" clip-rule="evenodd" d="M228.175 191.326C230.086 195.148 228.53 199.801 224.708 201.712C220.887 203.623 216.233 202.067 214.337 198.245C212.427 194.423 213.983 189.785 217.805 187.859C221.626 185.948 226.28 187.505 228.191 191.326H228.175Z" fill="#FFCD05" style="fill:#FFCD05;fill:color(display-p3 1.0000 0.8039 0.0196);fill-opacity:1;"/>
<path fill-rule="evenodd" clip-rule="evenodd" d="M372.175 512.764C374.086 516.585 372.53 521.239 368.708 523.15C364.886 525.061 360.233 523.504 358.337 519.683C356.426 515.861 357.983 511.223 361.804 509.297C365.626 507.386 370.28 508.942 372.191 512.764H372.175Z" fill="#FFCD05" style="fill:#FFCD05;fill:color(display-p3 1.0000 0.8039 0.0196);fill-opacity:1;"/>
<path fill-rule="evenodd" clip-rule="evenodd" d="M240.056 229.604C241.967 233.425 240.411 238.079 236.589 239.99C232.767 241.885 228.129 240.344 226.218 236.523C224.308 232.701 225.864 228.047 229.686 226.137C233.507 224.226 238.161 225.782 240.072 229.604H240.056Z" fill="#FFCD05" style="fill:#FFCD05;fill:color(display-p3 1.0000 0.8039 0.0196);fill-opacity:1;"/>
<path fill-rule="evenodd" clip-rule="evenodd" d="M384.056 551.041C385.967 554.863 384.41 559.517 380.589 561.427C376.767 563.323 372.129 561.782 370.218 557.96C368.307 554.139 369.864 549.485 373.685 547.574C377.507 545.663 382.161 547.22 384.071 551.041H384.056Z" fill="#FFCD05" style="fill:#FFCD05;fill:color(display-p3 1.0000 0.8039 0.0196);fill-opacity:1;"/>
<path fill-rule="evenodd" clip-rule="evenodd" d="M242.737 349.26C244.648 353.082 243.092 357.736 239.27 359.646C235.448 361.557 230.795 360.001 228.884 356.179C226.973 352.358 228.529 347.704 232.351 345.793C236.173 343.882 240.826 345.439 242.737 349.26Z" fill="white" style="fill:white;fill-opacity:1;"/>
<path fill-rule="evenodd" clip-rule="evenodd" d="M386.737 670.698C388.648 674.519 387.092 679.173 383.27 681.084C379.448 682.995 374.795 681.438 372.884 677.617C370.973 673.795 372.529 669.141 376.351 667.231C380.173 665.32 384.826 666.876 386.737 670.698Z" fill="white" style="fill:white;fill-opacity:1;"/>
<path fill-rule="evenodd" clip-rule="evenodd" d="M182.766 656.551C187.034 656.551 190.501 660.018 190.501 664.287C190.501 668.555 187.034 672.022 182.766 672.022C178.497 672.022 175.03 668.555 175.03 664.287C175.03 660.018 178.497 656.551 182.766 656.551Z" fill="white" style="fill:white;fill-opacity:1;"/>
</svg>
